<svg preserveAspectRatio="xMidYMid meet" width="100%" height="100%" viewBox="0 0 24 24" fill="none" xmlns="http://www.w3.org/2000/svg">
  <rect x="3" y="3" width="18" height="18" rx="5" fill="#F2F7FB"/>
  <path fill-rule="evenodd" clip-rule="evenodd" d="M6.9 7.9C6.4 8.4 6.4 9.2 6.4 10.8v2.4c0 1.6 0 2.4.5 2.9.5.5 1.3.5 2.9.5h1.1c.5 0 1 .15 1.42.43l1.95 1.3c.48.32 1.12-.12.98-.68l-.08-.32c-.12-.48.24-.93.73-.93h.3c1.6 0 2.4 0 2.9-.5.5-.5.5-1.3.5-2.9v-2.2c0-1.6 0-2.4-.5-2.9-.5-.5-1.3-.5-2.9-.5H9.8c-1.6 0-2.4 0-2.9.5Z" fill="#3097CB"/>
  <path d="M10 10.25h4.8M9.2 13h5.6" stroke="white" stroke-width="1.4" stroke-linecap="round"/>
  <path d="M7.6 7.4a6.22 6.22 0 0 0 0 9.2M16.4 7.4a6.22 6.22 0 0 1 0 9.2" stroke="#3097CB" stroke-width="1.25" stroke-linecap="round"/>
</svg>
