<svg preserveAspectRatio="none" width="100%" height="100%" overflow="visible" style="display: block;" viewBox="0 0 19.5833 16.25" fill="none" xmlns="http://www.w3.org/2000/svg">
<g id="Scan 14">
<g id="Vector">
<path d="M11.6667 0.625C11.6667 0.279822 11.9465 0 12.2917 0H13.125C15.7714 0 17.9167 2.1453 17.9167 4.79167V5.625C17.9167 5.97018 17.6368 6.25 17.2917 6.25C16.9465 6.25 16.6667 5.97018 16.6667 5.625V4.79167C16.6667 2.83566 15.081 1.25 13.125 1.25H12.2917C11.9465 1.25 11.6667 0.970178 11.6667 0.625Z" fill="#262628"/>
<path d="M1.66667 4.79167C1.66667 2.1453 3.81197 0 6.45833 0H7.29167C7.63684 0 7.91667 0.279822 7.91667 0.625C7.91667 0.970178 7.63684 1.25 7.29167 1.25H6.45833C4.50232 1.25 2.91667 2.83566 2.91667 4.79167V5.625C2.91667 5.97018 2.63684 6.25 2.29167 6.25C1.94649 6.25 1.66667 5.97018 1.66667 5.625V4.79167Z" fill="#262628"/>
<path d="M0 8.125C0 7.77982 0.279822 7.5 0.625 7.5H18.9583C19.3035 7.5 19.5833 7.77982 19.5833 8.125C19.5833 8.47018 19.3035 8.75 18.9583 8.75H0.625C0.279822 8.75 0 8.47018 0 8.125Z" fill="#262628"/>
<path d="M2.29167 10C2.63684 10 2.91667 10.2798 2.91667 10.625V11.4583C2.91667 13.4143 4.50232 15 6.45833 15H7.29167C7.63684 15 7.91667 15.2798 7.91667 15.625C7.91667 15.9702 7.63684 16.25 7.29167 16.25H6.45833C3.81197 16.25 1.66667 14.1047 1.66667 11.4583V10.625C1.66667 10.2798 1.94649 10 2.29167 10Z" fill="#262628"/>
<path d="M17.2917 10C17.6368 10 17.9167 10.2798 17.9167 10.625V11.4583C17.9167 14.1047 15.7714 16.25 13.125 16.25H12.2917C11.9465 16.25 11.6667 15.9702 11.6667 15.625C11.6667 15.2798 11.9465 15 12.2917 15H13.125C15.081 15 16.6667 13.4143 16.6667 11.4583V10.625C16.6667 10.2798 16.9465 10 17.2917 10Z" fill="#262628"/>
<path d="M5.625 10.4861C5.625 12.4038 7.17957 13.9583 9.09722 13.9583H10.4861C12.4038 13.9583 13.9583 12.4038 13.9583 10.4861C13.9583 10.1026 13.6474 9.79167 13.2639 9.79167H6.31944C5.93591 9.79167 5.625 10.1026 5.625 10.4861Z" fill="#262628"/>
<path d="M9.09722 2.29167C7.17957 2.29167 5.625 3.84623 5.625 5.76389C5.625 6.14742 5.93591 6.45833 6.31944 6.45833H13.2639C13.6474 6.45833 13.9583 6.14742 13.9583 5.76389C13.9583 3.84623 12.4038 2.29167 10.4861 2.29167H9.09722Z" fill="#262628"/>
</g>
</g>
</svg>
