<svg preserveAspectRatio="none" width="100%" height="100%" overflow="visible" style="display: block;" viewBox="0 0 15 15.8553" fill="none" xmlns="http://www.w3.org/2000/svg">
<g id="Message 11">
<path id="Vector" fill-rule="evenodd" clip-rule="evenodd" d="M14.5459 2.27504C15 3.16634 15 4.33311 15 6.66667V8.9157C15 9.14873 15 9.26524 14.9953 9.3637C14.8937 11.51 13.1767 13.2271 11.0304 13.3287C10.9319 13.3333 10.8019 13.3333 10.542 13.3333L10.4753 13.3334C9.62506 13.3389 8.79687 13.6043 8.10187 14.094L8.05768 14.1255L5.88207 15.6795C5.13625 16.2122 4.15619 15.4429 4.49658 14.5919C4.73771 13.9891 4.29376 13.3333 3.64451 13.3333H3.14305C1.40719 13.3333 0 11.9261 0 10.1903V6.66667C0 4.33311 0 3.16634 0.454139 2.27504C0.853612 1.49103 1.49103 0.853612 2.27504 0.454139C3.16634 0 4.33311 0 6.66667 0H8.33333C10.6669 0 11.8337 0 12.725 0.454139C13.509 0.853612 14.1464 1.49103 14.5459 2.27504ZM7.5 5.625L10.8333 5.625C11.1785 5.625 11.4583 5.34518 11.4583 5C11.4583 4.65482 11.1785 4.375 10.8333 4.375L7.5 4.375C7.15482 4.375 6.875 4.65482 6.875 5C6.875 5.34518 7.15482 5.625 7.5 5.625ZM4.16667 7.70833C3.82149 7.70833 3.54167 7.98816 3.54167 8.33333C3.54167 8.67851 3.82149 8.95833 4.16667 8.95833H10.8333C11.1785 8.95833 11.4583 8.67851 11.4583 8.33333C11.4583 7.98816 11.1785 7.70833 10.8333 7.70833H4.16667Z" fill="#262628"/>
</g>
</svg>
