<svg preserveAspectRatio="none" width="100%" height="100%" overflow="visible" style="display: block;" viewBox="0 0 9.16667 9.16667" fill="none" xmlns="http://www.w3.org/2000/svg">
<g id="Add Circle">
<path id="Vector" fill-rule="evenodd" clip-rule="evenodd" d="M4.58333 8.75C6.88452 8.75 8.75 6.88452 8.75 4.58333C8.75 2.28215 6.88452 0.416667 4.58333 0.416667C2.28215 0.416667 0.416667 2.28215 0.416667 4.58333C0.416667 6.88452 2.28215 8.75 4.58333 8.75ZM4.89583 3.33333C4.89583 3.16074 4.75592 3.02083 4.58333 3.02083C4.41074 3.02083 4.27083 3.16074 4.27083 3.33333V4.27083H3.33333C3.16074 4.27083 3.02083 4.41074 3.02083 4.58333C3.02083 4.75592 3.16074 4.89583 3.33333 4.89583H4.27083V5.83333C4.27083 6.00592 4.41074 6.14583 4.58333 6.14583C4.75592 6.14583 4.89583 6.00592 4.89583 5.83333V4.89583H5.83333C6.00592 4.89583 6.14583 4.75592 6.14583 4.58333C6.14583 4.41074 6.00592 4.27083 5.83333 4.27083H4.89583V3.33333Z" fill="#262628" stroke="white" stroke-width="0.833333" stroke-linecap="round"/>
</g>
</svg>
