<svg preserveAspectRatio="none" width="100%" height="100%" overflow="visible" style="display: block;" viewBox="0 0 15.625 17.0833" fill="none" xmlns="http://www.w3.org/2000/svg">
<g id="Profile Add 2">
<g id="Vector">
<path d="M13.125 10.8333C13.125 10.4882 12.8452 10.2083 12.5 10.2083C12.1548 10.2083 11.875 10.4882 11.875 10.8333V12.7083H10C9.65482 12.7083 9.375 12.9882 9.375 13.3333C9.375 13.6785 9.65482 13.9583 10 13.9583H11.875V15.8333C11.875 16.1785 12.1548 16.4583 12.5 16.4583C12.8452 16.4583 13.125 16.1785 13.125 15.8333V13.9583H15C15.3452 13.9583 15.625 13.6785 15.625 13.3333C15.625 12.9882 15.3452 12.7083 15 12.7083H13.125V10.8333Z" fill="#262628"/>
<path d="M2.5 3.95833C2.5 1.77221 4.27221 0 6.45833 0C8.64446 0 10.4167 1.77221 10.4167 3.95833C10.4167 6.14446 8.64446 7.91667 6.45833 7.91667C4.27221 7.91667 2.5 6.14446 2.5 3.95833Z" fill="#262628"/>
<path d="M0 13.125C0 10.9389 1.77221 9.16667 3.95833 9.16667H8.95833C9.7747 9.16667 10.5334 9.4138 11.1635 9.83734C10.9561 10.1152 10.8333 10.4599 10.8333 10.8333V11.6667H10C9.07953 11.6667 8.33333 12.4129 8.33333 13.3333C8.33333 14.2538 9.07953 15 10 15H10.8333V15.8333C10.8333 16.0807 10.8872 16.3154 10.9839 16.5265C10.3913 16.8802 9.69855 17.0833 8.95833 17.0833H3.95833C1.77221 17.0833 0 15.3111 0 13.125Z" fill="#262628"/>
</g>
</g>
</svg>
