<svg preserveAspectRatio="none" width="100%" height="100%" overflow="visible" style="display: block;" viewBox="0 0 24 24" fill="none" xmlns="http://www.w3.org/2000/svg">
<g id="Frame">
<path id="Vector" d="M12 2C17.5227 2 22 6.47725 22 12C22 17.5227 17.5227 22 12 22C6.47725 22 2 17.5227 2 12C2 6.47725 6.47725 2 12 2Z" fill="#1A1A1A"/>
<path id="Vector_2" d="M16.1913 7.02488C15.9998 6.98208 15.8 6.99469 15.6153 7.06121L10.356 8.95472C10.0337 9.07071 9.74099 9.25643 9.49876 9.4986C9.25654 9.74078 9.07077 10.0335 8.95472 10.3557L7.06121 15.6153C6.99469 15.8 6.98208 15.9998 7.02488 16.1913C7.06768 16.3829 7.1641 16.5583 7.30289 16.6971C7.44168 16.8359 7.6171 16.9323 7.80866 16.9751C8.00021 17.0179 8.19999 17.0053 8.38465 16.9388L13.644 15.0453C13.9663 14.9293 14.259 14.7436 14.5012 14.5014C14.7435 14.2592 14.9292 13.9665 15.0453 13.6443L16.9388 8.38465C17.0053 8.19999 17.0179 8.00021 16.9751 7.80866C16.9323 7.6171 16.8359 7.44168 16.6971 7.30289C16.5583 7.1641 16.3829 7.06768 16.1913 7.02488Z" fill="white"/>
<path id="Vector_3" d="M10.9199 10.4688L15 9L13.5312 13.0801C13.4939 13.1839 13.4341 13.2781 13.3561 13.3561C13.2781 13.4341 13.1839 13.4939 13.0801 13.5312L9 15L10.4688 10.9199C10.5061 10.8161 10.5659 10.7219 10.6439 10.6439C10.7219 10.5659 10.8161 10.5061 10.9199 10.4688Z" fill="#1A1A1A"/>
</g>
</svg>
