<svg preserveAspectRatio="xMidYMid meet" width="100%" height="100%" viewBox="0 0 24 24" fill="none" xmlns="http://www.w3.org/2000/svg">
  <path fill-rule="evenodd" clip-rule="evenodd" d="M4.923 4.923C4 5.846 4 7.331 4 10.3v3.4c0 2.969 0 4.454.923 5.377C5.846 20 7.331 20 10.3 20h3.4c2.969 0 4.454 0 5.377-.923C20 18.154 20 16.669 20 13.7v-3.4c0-2.969 0-4.454-.923-5.377C18.154 4 16.669 4 13.7 4h-3.4C7.331 4 5.846 4 4.923 4.923ZM12 10.25c-.966 0-1.75.784-1.75 1.75s.784 1.75 1.75 1.75 1.75-.784 1.75-1.75-.784-1.75-1.75-1.75Z" fill="#1A1A1A"/>
  <path d="M8.72 8.72a4.64 4.64 0 0 0 0 6.56M15.28 8.72a4.64 4.64 0 0 1 0 6.56M7.02 7.02a7.044 7.044 0 0 0 0 9.96M16.98 7.02a7.044 7.044 0 0 1 0 9.96" stroke="white" stroke-width="1.35" stroke-linecap="round"/>
</svg>
