<svg preserveAspectRatio="none" width="100%" height="100%" overflow="visible" style="display: block;" viewBox="0 0 19.5 19.5" fill="none" xmlns="http://www.w3.org/2000/svg">
<g id="Profile Square 2">
<path id="Vector" fill-rule="evenodd" clip-rule="evenodd" d="M9.79525 1.32337e-07C11.6318 -8.0335e-06 13.0714 -1.45286e-05 14.2135 0.123728C15.3791 0.250006 16.3234 0.512324 17.1298 1.09815C17.6179 1.45281 18.0472 1.88209 18.4018 2.37024C18.9877 3.17656 19.25 4.12094 19.3763 5.28648C19.5 6.42859 19.5 7.86816 19.5 9.70465V9.79527C19.5 11.6318 19.5 13.0714 19.3763 14.2135C19.25 15.3791 18.9877 16.3234 18.4018 17.1298C18.0643 17.5944 17.6592 18.0056 17.2 18.35C17.1902 18.3574 17.1803 18.3647 17.1704 18.3721C17.1598 18.3799 17.1492 18.3877 17.1386 18.3954L17.1298 18.4018C16.3234 18.9877 15.3791 19.25 14.2135 19.3763C13.0714 19.5 11.6318 19.5 9.79535 19.5H9.70473C7.86824 19.5 6.42859 19.5 5.28648 19.3763C4.12094 19.25 3.17656 18.9877 2.37024 18.4018C2.34801 18.3857 2.32592 18.3694 2.30396 18.353C1.84317 18.008 1.43667 17.5957 1.09815 17.1298C0.512324 16.3234 0.250006 15.3791 0.123728 14.2135C-1.45286e-05 13.0714 -8.0335e-06 11.6318 1.32337e-07 9.79525V9.70475C-8.0335e-06 7.86821 -1.45286e-05 6.42861 0.123728 5.28648C0.250006 4.12094 0.512324 3.17656 1.09815 2.37024C1.45281 1.88209 1.88209 1.45281 2.37024 1.09815C3.17656 0.512324 4.12094 0.250006 5.28648 0.123728C6.42861 -1.45286e-05 7.86821 -8.0335e-06 9.70475 1.32337e-07H9.79525ZM16.6499 16.8569C16.2442 15.0777 14.6521 13.75 12.75 13.75H6.75C4.84786 13.75 3.25583 15.0777 2.85008 16.8569C2.96214 16.9615 3.07992 17.0601 3.20293 17.1522C3.21918 17.1644 3.2355 17.1764 3.25191 17.1883C3.75992 17.5574 4.41013 17.7725 5.44804 17.885C6.49999 17.999 7.85843 18 9.75 18C11.6416 18 13 17.999 14.052 17.885C15.0899 17.7725 15.7401 17.5574 16.2481 17.1883C16.2655 17.1757 16.2828 17.1629 16.3 17.15C16.422 17.0585 16.5387 16.9607 16.6499 16.8569ZM9.75 2C7.12665 2 5 4.12665 5 6.75C5 9.37335 7.12665 11.5 9.75 11.5C12.3734 11.5 14.5 9.37335 14.5 6.75C14.5 4.12665 12.3734 2 9.75 2Z" fill="#1A1A1A"/>
</g>
</svg>
