<svg preserveAspectRatio="none" width="100%" height="100%" overflow="visible" style="display: block;" viewBox="0 0 24 24" fill="none" xmlns="http://www.w3.org/2000/svg">
<g id="Hicon / Bold / Profile 1">
<g id="Frame 2">
</g>
<rect id="Rectangle 1" x="17" y="5" width="6" height="2" rx="1" fill="#1A1A1A"/>
<rect id="Rectangle 2" x="18" y="8" width="5" height="2" rx="1" fill="#1A1A1A"/>
<rect id="Rectangle 3" x="19" y="11" width="4" height="2" rx="1" fill="#1A1A1A"/>
<g id="Vector">
<path fill-rule="evenodd" clip-rule="evenodd" d="M9.5 3C6.96127 3 4.90323 4.8673 4.90323 7.17073C4.90323 9.47416 6.96127 11.3415 9.5 11.3415C12.0387 11.3415 14.0968 9.47416 14.0968 7.17073C14.0968 4.8673 12.0387 3 9.5 3Z" fill="#1A1A1A"/>
<path fill-rule="evenodd" clip-rule="evenodd" d="M6.59677 12.6585C4.05805 12.6585 2 14.5258 2 16.8293C2 19.1327 4.05805 21 6.59677 21H12.4032C14.942 21 17 19.1327 17 16.8293C17 14.5258 14.942 12.6585 12.4032 12.6585H6.59677Z" fill="#1A1A1A"/>
</g>
</g>
</svg>
